<mxfile host="app.diagrams.net" modified="2020-08-18T23:27:14.385Z" agent="5.0 (Macintosh; Intel Mac OS X 10_15_6) AppleWebKit/537.36 (KHTML, like Gecko) Chrome/84.0.4147.125 Safari/537.36" etag="vknfJ76h4GzqGa3GQrVi" version="13.5.9" type="github">
  <diagram name="Page-1" id="2a216829-ef6e-dabb-86c1-c78162f3ba2b">
    <mxGraphModel dx="1739" dy="1020" grid="1" gridSize="10" guides="1" tooltips="1" connect="1" arrows="1" fold="1" page="1" pageScale="1" pageWidth="850" pageHeight="1100" background="#ffffff" math="0" shadow="0">
      <root>
        <mxCell id="0" />
        <mxCell id="1" parent="0" />
        <mxCell id="7a84cebc1def654-2" value="&lt;font&gt;&lt;span style=&quot;font-size: 16px&quot;&gt;Grafana&lt;/span&gt;&lt;br&gt;&lt;font style=&quot;font-size: 12px&quot;&gt;UI&lt;/font&gt;&lt;br&gt;&lt;/font&gt;" style="shape=ext;rounded=1;html=1;whiteSpace=wrap;fillColor=#d5e8d4;strokeColor=#82b366;" parent="1" vertex="1">
          <mxGeometry x="360" y="270" width="120" height="80" as="geometry" />
        </mxCell>
        <mxCell id="e-fP_cJDVetkCAnAMshG-1" value="" style="rounded=0;whiteSpace=wrap;html=1;" vertex="1" parent="1">
          <mxGeometry x="560" y="200" width="200" height="440" as="geometry" />
        </mxCell>
        <mxCell id="e-fP_cJDVetkCAnAMshG-2" value="&lt;font style=&quot;font-size: 17px&quot;&gt;DataStore&lt;/font&gt;" style="text;html=1;strokeColor=none;fillColor=none;align=center;verticalAlign=middle;whiteSpace=wrap;rounded=0;" vertex="1" parent="1">
          <mxGeometry x="640" y="230" width="40" height="20" as="geometry" />
        </mxCell>
        <mxCell id="e-fP_cJDVetkCAnAMshG-3" value="&lt;font style=&quot;font-size: 15px&quot;&gt;InfluxDB/ &lt;br&gt;Prometheus/&lt;br&gt;YugabyteDB&lt;/font&gt;" style="shape=ext;rounded=1;html=1;whiteSpace=wrap;fillColor=#dae8fc;strokeColor=#6c8ebf;" vertex="1" parent="1">
          <mxGeometry x="600" y="280" width="120" height="80" as="geometry" />
        </mxCell>
        <mxCell id="7a84cebc1def654-39" style="edgeStyle=orthogonalEdgeStyle;rounded=0;html=1;jettySize=auto;orthogonalLoop=1;" parent="1" source="7a84cebc1def654-2" edge="1">
          <mxGeometry relative="1" as="geometry">
            <mxPoint x="600" y="310" as="targetPoint" />
          </mxGeometry>
        </mxCell>
        <mxCell id="e-fP_cJDVetkCAnAMshG-6" style="edgeStyle=orthogonalEdgeStyle;rounded=0;orthogonalLoop=1;jettySize=auto;html=1;exitX=1;exitY=0.5;exitDx=0;exitDy=0;entryX=0.5;entryY=1;entryDx=0;entryDy=0;" edge="1" parent="1" source="e-fP_cJDVetkCAnAMshG-4" target="e-fP_cJDVetkCAnAMshG-3">
          <mxGeometry relative="1" as="geometry" />
        </mxCell>
        <mxCell id="e-fP_cJDVetkCAnAMshG-4" value="&lt;font&gt;&lt;span style=&quot;font-size: 15px&quot;&gt;Data Transformation Layer&lt;/span&gt;&lt;br&gt;&lt;font style=&quot;font-size: 10px&quot;&gt;Spark&lt;/font&gt;&lt;/font&gt;&lt;font style=&quot;font-size: 15px&quot;&gt;&amp;nbsp;&lt;br&gt;&lt;/font&gt;" style="shape=ext;rounded=1;html=1;whiteSpace=wrap;" vertex="1" parent="1">
          <mxGeometry x="360" y="450" width="120" height="80" as="geometry" />
        </mxCell>
        <mxCell id="e-fP_cJDVetkCAnAMshG-9" style="edgeStyle=orthogonalEdgeStyle;rounded=0;orthogonalLoop=1;jettySize=auto;html=1;exitX=0;exitY=0.5;exitDx=0;exitDy=0;entryX=0.5;entryY=1;entryDx=0;entryDy=0;" edge="1" parent="1" source="e-fP_cJDVetkCAnAMshG-7" target="e-fP_cJDVetkCAnAMshG-4">
          <mxGeometry relative="1" as="geometry">
            <mxPoint x="420" y="570" as="targetPoint" />
          </mxGeometry>
        </mxCell>
        <mxCell id="e-fP_cJDVetkCAnAMshG-7" value="&lt;font&gt;&lt;span style=&quot;font-size: 16px&quot;&gt;MapR-FS&lt;/span&gt;&lt;br&gt;&lt;font style=&quot;font-size: 12px&quot;&gt;Parquet&lt;/font&gt;&lt;/font&gt;" style="shape=ext;rounded=1;html=1;whiteSpace=wrap;fillColor=#dae8fc;strokeColor=#6c8ebf;" vertex="1" parent="1">
          <mxGeometry x="600" y="530" width="120" height="80" as="geometry" />
        </mxCell>
      </root>
    </mxGraphModel>
  </diagram>
</mxfile>
